<svg height="36" viewBox="0 0 36 36" width="36" xmlns="http://www.w3.org/2000/svg"><path fill="#1266DC" d="m17.5,9.666667l0,-6.666667l-15.5,0l0,29.999999l30.999999,0l0,-23.333333l-15.5,0zm-9.3,20l-3.1,0l0,-3.333333l3.1,0l0,3.333333zm0,-6.666667l-3.1,0l0,-3.333333l3.1,0l0,3.333333zm0,-6.666667l-3.1,0l0,-3.333333l3.1,0l0,3.333333zm0,-6.666667l-3.1,0l0,-3.333333l3.1,0l0,3.333333zm6.2,20l-3.1,0l0,-3.333333l3.1,0l0,3.333333zm0,-6.666667l-3.1,0l0,-3.333333l3.1,0l0,3.333333zm0,-6.666667l-3.1,0l0,-3.333333l3.1,0l0,3.333333zm0,-6.666667l-3.1,0l0,-3.333333l3.1,0l0,3.333333zm15.5,20l-12.4,0l0,-3.333333l3.1,0l0,-3.333333l-3.1,0l0,-3.333333l3.1,0l0,-3.333333l-3.1,0l0,-3.333333l12.4,0l0,16.666666zm-3.1,-13.333333l-3.1,0l0,3.333333l3.1,0l0,-3.333333zm0,6.666667l-3.1,0l0,3.333333l3.1,0l0,-3.333333z"/></svg>