<?xml version="1.0" encoding="iso-8859-1"?>
<!-- Uploaded to: SVG Repo, www.svgrepo.com, Generator: SVG Repo Mixer Tools -->
<svg version="1.1" id="Layer_1" xmlns="http://www.w3.org/2000/svg" xmlns:xlink="http://www.w3.org/1999/xlink" 
	 viewBox="0 0 512 512" xml:space="preserve">
<rect x="142.884" y="129.039" style="fill:#FFD6A0;" width="59.535" height="166.698"/>
<path style="fill:#FFE6C6;" d="M229.209,175.179c-13.407,0-24.594,9.984-26.5,22.882l-0.291,0.23v81.968h-35.721v-79.38
	c0-16.92,3.969-27.386,20.175-48.198l61.601-85.046c12.092-15.486,9.314-38.048-6.173-50.138
	c-15.485-12.092-38.048-9.314-50.138,6.171l-77.125,105.505c-8.986,12.293-13.829,27.124-13.829,42.351v195.655l71.442,71.442
	l58.55-50.186c15.74-13.492,24.799-33.188,24.799-53.92V201.969C256,187.235,243.944,175.179,229.209,175.179z"/>
<rect x="55.503" y="306.589" transform="matrix(-0.7071 0.7071 -0.7071 -0.7071 468.2601 603.7747)" style="fill:#AED5F3;" width="107.162" height="184.556"/>
<rect x="65.968" y="331.851" transform="matrix(-0.7071 0.7071 -0.7071 -0.7071 443.0089 664.7574)" style="fill:#78B9EB;" width="35.721" height="184.556"/>
<rect x="309.581" y="129.039" style="fill:#FFD6A0;" width="59.535" height="166.698"/>
<path style="fill:#FFE6C6;" d="M282.791,175.179c13.407,0,24.593,9.984,26.5,22.882l0.291,0.23v81.968h35.721v-79.38
	c0-16.92-3.969-27.386-20.175-48.198l-61.601-85.044c-12.092-15.486-9.314-38.048,6.171-50.138
	c15.486-12.092,38.048-9.314,50.139,6.171l77.124,105.505c8.987,12.292,13.83,27.123,13.83,42.35v195.655l-71.442,71.442
	l-58.55-50.186C265.058,374.943,256,355.247,256,334.516V201.969C256,187.235,268.056,175.179,282.791,175.179z"/>
<rect x="349.327" y="306.601" transform="matrix(0.7071 0.7071 -0.7071 0.7071 400.059 -168.0703)" style="fill:#AED5F3;" width="107.162" height="184.556"/>
<rect x="410.303" y="331.873" transform="matrix(0.7071 0.7071 -0.7071 0.7071 425.3262 -178.526)" style="fill:#78B9EB;" width="35.721" height="184.556"/>
<g>
	<rect y="107.214" style="fill:#C9E3F7;" width="59.535" height="35.721"/>
	
		<rect x="13.961" y="25.843" transform="matrix(-0.9428 -0.3333 0.3333 -0.9428 70.3896 99.4825)" style="fill:#C9E3F7;" width="59.534" height="35.72"/>
	<rect x="452.465" y="107.214" style="fill:#C9E3F7;" width="59.535" height="35.721"/>
	
		<rect x="450.402" y="13.937" transform="matrix(-0.3333 -0.9428 0.9428 -0.3333 583.1323 499.7556)" style="fill:#C9E3F7;" width="35.72" height="59.533"/>
</g>
</svg>