<svg width="24" height="24" xmlns="http://www.w3.org/2000/svg">

 <g>
  <title>background</title>
  <rect fill="none" id="canvas_background" height="26" width="26" y="-1" x="-1"/>
 </g>
 <g>
  <title>Layer 1</title>
  <path stroke="null" id="svg_1" fill="none" d="m0,0l24,0l0,24l-24,0l0,-24z"/>
  <path opacity="0.5" stroke="null" fill="#007f7f" id="svg_2" d="m20,4l-16,0c-1.11,0 -1.99,0.89 -1.99,2l-0.01,12c0,1.11 0.89,2 2,2l16,0c1.11,0 2,-0.89 2,-2l0,-12l-2,-2zm0,14l-16,0l0,-6l16,0l0,6zm0,-10l-16,0l0,-2l16,0l0,2z"/>
  <g stroke="null" id="svg_15">
   <path stroke="null" fill="#3498db" id="svg_13" d="m17.045178,7.602721c-0.142545,-0.479838 -0.541673,-0.821415 -1.012066,-0.821415l-7.839984,0c-0.470393,0 -0.862394,0.341576 -1.012066,0.821415l-1.482473,4.871533l0,6.506219c0,0.447313 0.320722,0.813287 0.712723,0.813287l0.712723,0c0.392001,0 0.712723,-0.365975 0.712723,-0.813287l0,-0.813271l8.552707,0l0,0.813271c0,0.447313 0.320736,0.813287 0.712738,0.813287l0.712723,0c0.392001,0 0.712723,-0.365975 0.712723,-0.813287l0,-6.506219l-1.482473,-4.871533zm-8.85205,8.12465c-0.591558,0 -1.069092,-0.544906 -1.069092,-1.219915s0.477534,-1.219915 1.069092,-1.219915s1.069092,0.54489 1.069092,1.219915s-0.477534,1.219915 -1.069092,1.219915zm7.839984,0c-0.591558,0 -1.069092,-0.544906 -1.069092,-1.219915s0.477534,-1.219915 1.069092,-1.219915s1.069092,0.54489 1.069092,1.219915s-0.477534,1.219915 -1.069092,1.219915zm-8.909076,-4.066389l1.069092,-3.659761l7.839984,0l1.069092,3.659761l-9.978168,0z"/>
  </g>
  <g stroke="null" id="svg_27">
   <path stroke="null" id="svg_25" fill="none" d="m7.444249,0.656961l9.111501,0l0,7.980283l-9.111501,0l0,-7.980283z"/>
   <path stroke="null" fill="#4c4c4c" id="svg_26" d="m12.24677,3.982079c-0.31131,-0.774752 -1.154123,-1.330047 -2.144999,-1.330047c-1.256628,0 -2.277875,0.894457 -2.277875,1.995071s1.021247,1.995071 2.277875,1.995071c0.990876,0 1.83369,-0.555295 2.144999,-1.330047l1.65146,0l0,1.330047l1.518583,0l0,-1.330047l0.759292,0l0,-1.330047l-3.929335,0zm-2.144999,1.330047c-0.41761,0 -0.759292,-0.299261 -0.759292,-0.665024s0.341681,-0.665024 0.759292,-0.665024s0.759292,0.299261 0.759292,0.665024s-0.341681,0.665024 -0.759292,0.665024z"/>
  </g>
 </g>
</svg>