<?xml version="1.0" encoding="UTF-8"?>
<svg xmlns="http://www.w3.org/2000/svg" xmlns:xlink="http://www.w3.org/1999/xlink" width="100px" height="100px" viewBox="0 0 100 100" version="1.1">
<g id="surface1">
<path style=" stroke:none;fill-rule:nonzero;fill:rgb(100%,83.92157%,62.7451%);fill-opacity:1;" d="M 27.90625 25.203125 L 39.535156 25.203125 L 39.535156 57.761719 L 27.90625 57.761719 Z M 27.90625 25.203125 "/>
<path style=" stroke:none;fill-rule:nonzero;fill:rgb(100%,90.196079%,77.64706%);fill-opacity:1;" d="M 44.765625 34.214844 C 42.148438 34.214844 39.964844 36.164062 39.589844 38.683594 L 39.535156 38.730469 L 39.535156 54.738281 L 32.558594 54.738281 L 32.558594 39.234375 C 32.558594 35.929688 33.332031 33.886719 36.5 29.820312 L 48.53125 13.210938 C 50.890625 10.183594 50.347656 5.777344 47.324219 3.417969 C 44.300781 1.054688 39.894531 1.597656 37.53125 4.621094 L 22.46875 25.230469 C 20.714844 27.628906 19.765625 30.527344 19.765625 33.5 L 19.765625 71.714844 L 33.71875 85.667969 L 45.15625 75.867188 C 48.230469 73.230469 50 69.382812 50 65.335938 L 50 39.445312 C 50 36.570312 47.644531 34.214844 44.765625 34.214844 Z M 44.765625 34.214844 "/>
<path style=" stroke:none;fill-rule:nonzero;fill:rgb(68.235296%,83.529413%,95.294118%);fill-opacity:1;" d="M 41.449219 83.25 L 26.652344 98.046875 L 1.164062 72.558594 L 15.960938 57.761719 Z M 41.449219 83.25 "/>
<path style=" stroke:none;fill-rule:nonzero;fill:rgb(47.058824%,72.549021%,92.156863%);fill-opacity:1;" d="M 31.585938 93.117188 L 26.652344 98.046875 L 1.164062 72.5625 L 6.097656 67.628906 Z M 31.585938 93.117188 "/>
<path style=" stroke:none;fill-rule:nonzero;fill:rgb(100%,83.92157%,62.7451%);fill-opacity:1;" d="M 60.464844 25.203125 L 72.09375 25.203125 L 72.09375 57.761719 L 60.464844 57.761719 Z M 60.464844 25.203125 "/>
<path style=" stroke:none;fill-rule:nonzero;fill:rgb(100%,90.196079%,77.64706%);fill-opacity:1;" d="M 55.234375 34.214844 C 57.851562 34.214844 60.035156 36.164062 60.410156 38.683594 L 60.464844 38.730469 L 60.464844 54.738281 L 67.441406 54.738281 L 67.441406 39.234375 C 67.441406 35.929688 66.667969 33.886719 63.5 29.820312 L 51.46875 13.210938 C 49.109375 10.1875 49.652344 5.777344 52.675781 3.417969 C 55.699219 1.054688 60.105469 1.597656 62.46875 4.621094 L 77.53125 25.230469 C 79.285156 27.628906 80.234375 30.527344 80.234375 33.5 L 80.234375 71.714844 L 66.277344 85.667969 L 54.84375 75.867188 C 51.769531 73.230469 50 69.382812 50 65.335938 L 50 39.445312 C 50 36.570312 52.355469 34.214844 55.234375 34.214844 Z M 55.234375 34.214844 "/>
<path style=" stroke:none;fill-rule:nonzero;fill:rgb(68.235296%,83.529413%,95.294118%);fill-opacity:1;" d="M 84.039062 57.761719 L 98.835938 72.5625 L 73.347656 98.050781 L 58.550781 83.25 Z M 84.039062 57.761719 "/>
<path style=" stroke:none;fill-rule:nonzero;fill:rgb(47.058824%,72.549021%,92.156863%);fill-opacity:1;" d="M 93.902344 67.628906 L 98.835938 72.5625 L 73.347656 98.050781 L 68.414062 93.117188 Z M 93.902344 67.628906 "/>
<path style=" stroke:none;fill-rule:nonzero;fill:rgb(78.823531%,89.019608%,96.862745%);fill-opacity:1;" d="M 0 20.941406 L 11.628906 20.941406 L 11.628906 27.917969 L 0 27.917969 Z M 0 20.941406 "/>
<path style=" stroke:none;fill-rule:nonzero;fill:rgb(78.823531%,89.019608%,96.862745%);fill-opacity:1;" d="M 12.859375 13.761719 L 1.898438 9.886719 L 4.222656 3.308594 L 15.183594 7.183594 Z M 12.859375 13.761719 "/>
<path style=" stroke:none;fill-rule:nonzero;fill:rgb(78.823531%,89.019608%,96.862745%);fill-opacity:1;" d="M 88.371094 20.941406 L 100 20.941406 L 100 27.917969 L 88.371094 27.917969 Z M 88.371094 20.941406 "/>
<path style=" stroke:none;fill-rule:nonzero;fill:rgb(78.823531%,89.019608%,96.862745%);fill-opacity:1;" d="M 87.140625 13.765625 L 84.8125 7.1875 L 95.777344 3.3125 L 98.101562 9.886719 Z M 87.140625 13.765625 "/>
</g>
</svg>
