<svg width="100" height="100" xmlns="http://www.w3.org/2000/svg">
 <!-- Created with Method Draw - http://github.com/duopixel/Method-Draw/ -->
 <g>
  <title>background</title>
  <rect fill="#005953" id="canvas_background" height="102" width="102" y="-1" x="-1"/>
 </g>
 <g>
  <title>Layer 1</title>
  <g id="svg_20">
   <path stroke="null" d="m52.43595,14.12769c-1.41161,-3.71169 -5.23331,-6.37201 -9.72639,-6.37201c-5.69811,0 -10.32891,4.28518 -10.32891,9.55802s4.6308,9.55801 10.32891,9.55801c4.49308,0 8.31478,-2.66032 9.72639,-6.37201l7.48847,0l0,6.37201l6.88595,0l0,-6.37201l3.44296,0l0,-6.372l-17.81738,0c0,0 0,-0.00001 0,-0.00001zm-9.72639,6.37201c-1.89363,0 -3.44297,-1.43371 -3.44297,-3.186s1.54934,-3.18601 3.44297,-3.18601s3.44298,1.43371 3.44298,3.18601s-1.54933,3.186 -3.44298,3.186z" id="svg_13" fill="#ffffff"/>
   <path stroke="null" d="m77.75962,30.76639c-0.76423,-2.44345 -2.90411,-4.18285 -5.42607,-4.18285l-42.03314,0c-2.52196,0 -4.62362,1.7394 -5.42606,4.18285l-7.9481,24.80705l0,33.13129c0,2.27782 1.7195,4.14145 3.82118,4.14145l3.82118,0c2.10166,0 3.82118,-1.86363 3.82118,-4.14145l0,-4.14138l45.85431,0l0,4.14138c0,2.27782 1.71959,4.14145 3.82125,4.14145l3.82119,0c2.10167,0 3.82118,-1.86363 3.82118,-4.14145l0,-33.13129l-7.9481,-24.80705zm-47.45921,41.37273c-3.17156,0 -5.7318,-2.77479 -5.7318,-6.21211s2.56024,-6.21211 5.7318,-6.21211s5.73182,2.77472 5.73182,6.21211s-2.56024,6.21211 -5.73182,6.21211zm42.03314,0c-3.17155,0 -5.7318,-2.77479 -5.7318,-6.21211s2.56025,-6.21211 5.7318,-6.21211s5.7318,2.77472 5.7318,6.21211s-2.56023,6.21211 -5.7318,6.21211zm-47.76494,-20.70705l5.7318,-18.63642l42.03314,0l5.7318,18.63642l-53.49674,0z" id="svg_16" fill="#ffffff"/>
  </g>
 </g>
</svg>