<svg width="100" height="100" xmlns="http://www.w3.org/2000/svg">

 <g>
  <title>background</title>
  <rect fill="none" id="canvas_background" height="102" width="102" y="-1" x="-1"/>
 </g>
 <g>
  <title>Layer 1</title>
  <g stroke="null" id="svg_60">
   <path stroke="null" id="svg_1" fill="none" d="m0.443657,0.669899l99.11269,0l0,98.660202l-99.11269,0l0,-98.660202z"/>
   <path stroke="null" opacity="0.5" fill="#007f7f" id="svg_2" d="m83.037565,17.113266l-66.075127,0c-4.583962,0 -8.218094,3.658649 -8.218094,8.221684l-0.041297,49.330101c0,4.563034 3.675429,8.221684 8.259391,8.221684l66.075127,0c4.583962,0 8.259391,-3.658649 8.259391,-8.221684l0,-49.330101l-8.259391,-8.221684zm0,57.551785l-66.075127,0l0,-24.665051l66.075127,0l0,24.665051zm0,-41.108418l-66.075127,0l0,-8.221684l66.075127,0l0,8.221684z"/>
   <g stroke="null" id="svg_15">
    <path stroke="null" fill="#005953" id="svg_13" d="m70.835052,31.92348c-0.588666,-1.97254 -2.236943,-3.376706 -4.179523,-3.376706l-32.376747,0c-1.94258,0 -3.561426,1.404166 -4.179523,3.376706l-6.122162,20.0261l0,26.746036c0,1.838832 1.324484,3.343295 2.94333,3.343295l2.94333,0c1.618846,0 2.94333,-1.504463 2.94333,-3.343295l0,-3.34323l35.320077,0l0,3.34323c0,1.838832 1.324543,3.343295 2.943389,3.343295l2.94333,0c1.618846,0 2.94333,-1.504463 2.94333,-3.343295l0,-26.746036l-6.122162,-20.0261zm-36.556269,33.39915c-2.442955,0 -4.415024,-2.240022 -4.415024,-5.014878s1.972069,-5.014878 4.415024,-5.014878s4.415024,2.239957 4.415024,5.014878s-1.972069,5.014878 -4.415024,5.014878zm32.376747,0c-2.442955,0 -4.415024,-2.240022 -4.415024,-5.014878s1.972069,-5.014878 4.415024,-5.014878s4.415024,2.239957 4.415024,5.014878s-1.972069,5.014878 -4.415024,5.014878zm-36.791771,-16.71628l4.415024,-15.044698l32.376747,0l4.415024,15.044698l-41.206795,0z"/>
   </g>
   <path stroke="null" id="svg_25" fill="none" d="m31.18614,3.370562l37.627723,0l0,32.805679l-37.627723,0l0,-32.805679z"/>
   <path stroke="null" fill="#4c4c4c" id="svg_26" d="m51.019085,17.039595c-1.285614,-3.184885 -4.766178,-5.467613 -8.858193,-5.467613c-5.18949,0 -9.406931,3.67697 -9.406931,8.20142s4.217441,8.20142 9.406931,8.20142c4.092015,0 7.572579,-2.282728 8.858193,-5.467613l6.820025,0l0,5.467613l6.271287,0l0,-5.467613l3.135644,0l0,-5.467613l-16.226956,0zm-8.858193,5.467613c-1.724604,0 -3.135644,-1.230213 -3.135644,-2.733807s1.41104,-2.733807 3.135644,-2.733807s3.135644,1.230213 3.135644,2.733807s-1.41104,2.733807 -3.135644,2.733807z"/>
  </g>
 </g>
</svg>