<svg width="100" height="100" xmlns="http://www.w3.org/2000/svg">
 <g>
  <title>background</title>
  <rect fill="#FFFFFF" id="canvas_background" height="102" width="102" y="-1" x="-1"/>
 </g>

 <g>
  <title>Layer 1</title>
  <g stroke="null" id="svg_60">
   <path stroke="null" id="svg_1" fill="#ffffff" d="m4.919239,9.19642l90.161525,0l0,83.047893l-90.161525,0l0,-83.047893z"/>
   <path stroke="null" id="svg_25" fill="none" d="m31.065902,11.469718l34.229447,0l0,27.614406l-34.229447,0l0,-27.614406z"/>
   <g stroke="null" id="svg_15">
    <path stroke="null" fill="#005953" id="svg_13" d="m77.759622,29.766389c-0.764227,-2.443453 -2.904109,-4.18285 -5.426068,-4.18285l-42.03314,0c-2.521959,0 -4.623619,1.739397 -5.426068,4.18285l-7.948092,24.807052l0,33.131293c0,2.277819 1.719501,4.14145 3.821179,4.14145l3.821179,0c2.10166,0 3.821179,-1.863631 3.821179,-4.14145l0,-4.141382l45.85431,0l0,4.141382c0,2.277819 1.719593,4.14145 3.821254,4.14145l3.821189,0c2.10167,0 3.821179,-1.863631 3.821179,-4.14145l0,-33.131293l-7.948101,-24.807052zm-47.459209,41.372733c-3.171565,0 -5.731802,-2.77479 -5.731802,-6.212107s2.560237,-6.212115 5.731802,-6.212115s5.73182,2.774721 5.73182,6.212115s-2.560246,6.212107 -5.73182,6.212107zm42.03314,0c-3.171555,0 -5.731802,-2.77479 -5.731802,-6.212107s2.560246,-6.212115 5.731802,-6.212115s5.731802,2.774721 5.731802,6.212115s-2.560237,6.212107 -5.731802,6.212107zm-47.764942,-20.707054l5.731802,-18.636414l42.03314,0l5.731802,18.636414l-53.496744,0z"/>
    <polyline stroke="null" fill="none" stroke-width="null" opacity="0.5" points="30.43799591064453,45.3900260925293 31.365947723388672,45.3900260925293 34.149818420410156,45.3900260925293 39.717552185058594,45.3900260925293 47.14118957519531,45.3900260925293 55.49277877807617,45.3900260925293 62.916419982910156,45.3900260925293 69.412109375,45.3900260925293 72.19596862792969,44.50522232055664 74.0518798828125,44.50522232055664 74.97985076904297,44.50522232055664 74.97985076904297,43.620418548583984 74.0518798828125,43.620418548583984 73.12393188476562,43.620418548583984 68.48414611816406,43.620418548583984 63.84437561035156,43.620418548583984 60.1325569152832,43.620418548583984 57.348690032958984,43.620418548583984 53.63687515258789,43.620418548583984 51.78096008300781,42.73561477661133 50.853004455566406,42.73561477661133 " id="svg_8" stroke-linecap="round"/>
   </g>
   <path stroke="null" fill="#005953" id="svg_26" d="m52.435953,14.127686c-1.411614,-3.711684 -5.233313,-6.372002 -9.726388,-6.372002c-5.698117,0 -10.328918,4.285175 -10.328918,9.558011s4.630802,9.558011 10.328918,9.558011c4.493074,0 8.314774,-2.660318 9.726388,-6.372002l7.488467,0l0,6.372002l6.885946,0l0,-6.372002l3.442964,0l0,-6.372002l-17.817376,0c0,0 0,-0.000017 0,-0.000017zm-9.726388,6.372019c-1.893631,0 -3.442973,-1.43371 -3.442973,-3.186009s1.549341,-3.186009 3.442973,-3.186009s3.442973,1.43371 3.442973,3.186009s-1.549332,3.186009 -3.442973,3.186009z"/>
  </g>
 </g>
</svg>