<svg width="18" height="18" xmlns="http://www.w3.org/2000/svg">
 <g>
  <title>background</title>
  <rect x="-1" y="-1" width="20" height="20" id="canvas_background" fill="none"/>
 </g>

 <g>
  <title>Layer 1</title>
  <g stroke="null" id="svg_15">
   <path stroke="null" d="m13.989153,5.395589c-0.14255,-0.47984 -0.54167,-0.82141 -1.01207,-0.82141l-7.83998,0c-0.4704,0 -0.8624,0.34157 -1.01207,0.82141l-1.48247,4.87153l0,6.50622c0,0.44732 0.32072,0.81329 0.71272,0.81329l0.71272,0c0.39201,0 0.71273,-0.36597 0.71273,-0.81329l0,-0.81327l8.55271,0l0,0.81327c0,0.44732 0.32073,0.81329 0.71273,0.81329l0.71273,0c0.392,0 0.71272,-0.36597 0.71272,-0.81329l0,-6.50622l-1.48247,-4.87153zm-8.85205,8.12465c-0.59156,0 -1.06909,-0.5449 -1.06909,-1.21991s0.47753,-1.21992 1.06909,-1.21992s1.06909,0.54489 1.06909,1.21992s-0.47753,1.21991 -1.06909,1.21991zm7.83998,0c-0.59156,0 -1.06909,-0.5449 -1.06909,-1.21991s0.47753,-1.21992 1.06909,-1.21992s1.06909,0.54489 1.06909,1.21992s-0.47753,1.21991 -1.06909,1.21991zm-8.90907,-4.06639l1.06909,-3.65976l7.83998,0l1.06909,3.65976l-9.97816,0z" id="svg_13" fill="#005953"/>
  </g>
  <path d="m9.303863,2.114508c-0.31131,-0.77475 -1.15412,-1.33005 -2.145,-1.33005c-1.25663,0 -2.27787,0.89446 -2.27787,1.99507s1.02124,1.99507 2.27787,1.99507c0.99088,0 1.83369,-0.55529 2.145,-1.33004l1.65146,0l0,1.33004l1.51858,0l0,-1.33004l0.75929,0l0,-1.33005l-3.92933,0zm-2.145,1.33005c-0.41761,0 -0.75929,-0.29927 -0.75929,-0.66503s0.34168,-0.66502 0.75929,-0.66502s0.75929,0.29926 0.75929,0.66502s-0.34168,0.66503 -0.75929,0.66503z" id="svg_26" fill="#005953" stroke="null"/>
 </g>
</svg>